<svg xmlns="http://www.w3.org/2000/svg" viewBox="0 0 64 64" fill="none">
  <defs>
    <linearGradient id="switchGrad" x1="0%" y1="0%" x2="100%" y2="100%">
      <stop offset="0%" stop-color="#22c55e"/>
      <stop offset="100%" stop-color="#14b8a6"/>
    </linearGradient>
  </defs>
  <!-- Main body -->
  <rect x="6" y="22" width="52" height="20" rx="3" fill="url(#switchGrad)" opacity="0.9"/>
  <!-- 8 Ports -->
  <rect x="10" y="28" width="4" height="8" rx="1" fill="#0f172a"/>
  <rect x="16" y="28" width="4" height="8" rx="1" fill="#0f172a"/>
  <rect x="22" y="28" width="4" height="8" rx="1" fill="#0f172a"/>
  <rect x="28" y="28" width="4" height="8" rx="1" fill="#0f172a"/>
  <rect x="34" y="28" width="4" height="8" rx="1" fill="#0f172a"/>
  <rect x="40" y="28" width="4" height="8" rx="1" fill="#0f172a"/>
  <rect x="46" y="28" width="4" height="8" rx="1" fill="#0f172a"/>
  <rect x="52" y="28" width="4" height="8" rx="1" fill="#0f172a"/>
  <!-- Port LEDs -->
  <circle cx="12" cy="26" r="1.5" fill="#22c55e"/>
  <circle cx="18" cy="26" r="1.5" fill="#22c55e"/>
  <circle cx="24" cy="26" r="1.5" fill="#22c55e"/>
  <circle cx="30" cy="26" r="1.5" fill="#f59e0b"/>
  <circle cx="36" cy="26" r="1.5" fill="#6b7280"/>
  <circle cx="42" cy="26" r="1.5" fill="#6b7280"/>
  <circle cx="48" cy="26" r="1.5" fill="#6b7280"/>
  <circle cx="54" cy="26" r="1.5" fill="#6b7280"/>
</svg>