<svg xmlns="http://www.w3.org/2000/svg" viewBox="0 0 64 64" fill="none">
  <defs>
    <linearGradient id="cloudGrad" x1="0%" y1="0%" x2="100%" y2="100%">
      <stop offset="0%" stop-color="#0ea5e9"/>
      <stop offset="100%" stop-color="#06b6d4"/>
    </linearGradient>
  </defs>
  <!-- Cloud shape -->
  <path d="M48 42 Q58 42 58 32 Q58 24 50 22 Q50 14 40 14 Q32 14 28 20 Q22 16 16 20 Q10 24 10 32 Q10 42 20 42 Z" 
        fill="url(#cloudGrad)" opacity="0.9"/>
  <!-- Inner detail -->
  <path d="M44 38 Q52 38 52 30 Q52 24 46 23 Q46 18 38 18 Q32 18 28 22 Q24 20 20 23 Q16 26 16 32 Q16 38 22 38 Z" 
        fill="#0f172a" opacity="0.3"/>
  <!-- Connection dots -->
  <circle cx="24" cy="48" r="2" fill="url(#cloudGrad)"/>
  <circle cx="32" cy="52" r="2" fill="url(#cloudGrad)"/>
  <circle cx="40" cy="48" r="2" fill="url(#cloudGrad)"/>
  <!-- Connection lines -->
  <line x1="24" y1="42" x2="24" y2="46" stroke="url(#cloudGrad)" stroke-width="1.5"/>
  <line x1="32" y1="42" x2="32" y2="50" stroke="url(#cloudGrad)" stroke-width="1.5"/>
  <line x1="40" y1="42" x2="40" y2="46" stroke="url(#cloudGrad)" stroke-width="1.5"/>
</svg>
