<svg xmlns="http://www.w3.org/2000/svg" viewBox="0 0 64 64" fill="none">
  <defs>
    <linearGradient id="serverGrad" x1="0%" y1="0%" x2="100%" y2="100%">
      <stop offset="0%" stop-color="#3b82f6"/>
      <stop offset="100%" stop-color="#1d4ed8"/>
    </linearGradient>
  </defs>
  <!-- Server body -->
  <rect x="14" y="8" width="36" height="48" rx="3" fill="#1e293b"/>
  <rect x="14" y="8" width="36" height="48" rx="3" stroke="url(#serverGrad)" stroke-width="2"/>
  <!-- Drive bays -->
  <rect x="18" y="12" width="28" height="6" rx="1" fill="#0f172a"/>
  <rect x="18" y="20" width="28" height="6" rx="1" fill="#0f172a"/>
  <rect x="18" y="28" width="28" height="6" rx="1" fill="#0f172a"/>
  <!-- LEDs -->
  <circle cx="22" cy="15" r="2" fill="#22c55e"/>
  <circle cx="22" cy="23" r="2" fill="#22c55e"/>
  <circle cx="22" cy="31" r="2" fill="#3b82f6"/>
  <!-- Activity lights -->
  <rect x="40" y="14" width="3" height="2" fill="#f59e0b"/>
  <rect x="40" cy="22" width="3" height="2" fill="#22c55e"/>
  <rect x="40" y="30" width="3" height="2" fill="#22c55e"/>
  <!-- Bottom vent -->
  <line x1="20" y1="44" x2="44" y2="44" stroke="#334155" stroke-width="1"/>
  <line x1="20" y1="47" x2="44" y2="47" stroke="#334155" stroke-width="1"/>
  <line x1="20" y1="50" x2="44" y2="50" stroke="#334155" stroke-width="1"/>
</svg>